<svg width="822" height="168" viewBox="0 0 822 168" fill="none" xmlns="http://www.w3.org/2000/svg">
<g clip-path="url(#clip0_99_766)">
<path d="M111.205 13.2171C114.211 4.21709 119.461 2.24107 128.292 1.17107C135.608 0.669066 147.371 1.89207 153.162 6.90007C162.596 15.0601 158.305 32.7301 156.224 43.2801C155.481 47.0471 154.168 51.2151 154.438 55.0591C154.622 57.6651 155.63 60.1781 157.755 61.8451C161.347 64.6631 166.767 64.1931 171.004 63.7941C173.427 63.5661 177.523 62.2841 178.768 60.0461C183.991 50.6571 166.282 34.4031 165.711 23.2181C165.433 17.7721 165.229 15.0701 168.363 10.9771C172.682 5.33807 180.636 2.63508 187.504 1.88908C195.907 1.21108 207.519 0.243091 214.736 5.33409C218.945 8.30309 217.243 15.5341 216.134 19.6311C215.204 23.0651 214.275 26.5881 213.357 30.0521C204.714 62.7001 204.361 97.2491 207.85 130.662C208.335 135.312 209.425 140.228 210.332 144.825C211.146 148.842 212.546 152.967 212.97 157.062C213.162 158.919 213.027 160.176 211.705 161.621C208.469 165.159 200.09 166.501 195.345 166.651C187.426 166.9 174.83 167.523 168.62 161.728C165.055 158.401 164.889 155.576 164.679 151.147C166.125 136.861 184.111 107.364 179.634 96.5281C178.794 94.4961 177.066 92.7901 175.001 92.0281C170.817 90.4831 166.028 91.3541 162.104 93.2241C158.721 94.8361 156.525 97.5381 155.832 101.25C154.906 106.216 156.556 111.736 157.562 116.596C159.849 127.656 164.499 146.5 160.469 157.037C159.053 160.741 156.213 163.289 152.567 164.747C144.528 167.962 127.746 167.864 119.926 164.289C115.726 162.369 114.148 159.6 112.573 155.514C114.397 140.289 132.193 121.423 130.163 105.534C127.417 97.2341 114.278 102.158 108.217 97.5041C100.532 91.6041 100.842 85.8821 102.615 77.5281C105.549 63.7041 122.791 64.2671 128.086 57.0441C132.923 50.4441 116.664 28.3721 114.208 21.5111C112.895 18.0651 112.383 17.5601 111.205 13.2171Z" fill="#42B883"/>
<path d="M392.864 142.365C395.447 149.154 402.354 164.179 390.304 165.43C373.86 167.139 357.114 165.77 340.568 166.145C334.355 166.209 321.284 166.382 316.204 162.401C311.204 158.482 312.154 135.938 312.038 129.817C311.718 114.884 311.5 99.9491 311.386 85.0131L310.902 41.0441C310.793 32.7211 310.546 24.0731 310.765 15.7591C311.008 12.9911 311.065 10.4271 313.08 8.2591C318.054 2.9071 326.965 1.79109 333.817 1.20609C341.975 0.278093 354.432 2.0961 362.324 4.0611C382.088 8.9801 399.247 21.6921 403.071 42.6501C405.098 53.7411 402.639 65.1831 396.233 74.4611C385.853 89.4681 368.989 96.6351 351.621 99.8701C371.063 111.439 383.784 120.477 392.864 142.365ZM340 46.5901C325.767 49.8341 334.114 57.8041 332.299 69.0761C330.214 82.0211 350.778 75.7121 356.761 73.0141C373.574 64.4601 369.227 51.8421 352.304 47.1251C348.612 46.0971 343.848 46.2991 340 46.5901Z" fill="#42B883"/>
<path d="M473.721 165.629C466.145 166.664 453.215 166.034 445.048 166.225C436.519 166.084 427.878 166.661 419.384 165.826C407.841 164.692 402.987 152.368 399.787 142.911C398.036 136.574 391.921 127.598 391.701 121.177C391.273 108.624 403.047 94.582 407.629 83.084C410.618 75.405 412.163 67.24 412.187 59C412.323 46.45 409.449 35.251 403.459 24.305C401.196 19.951 398.71 15.857 397.584 11.042C395.57 2.42802 407.568 1.83102 413.287 1.18802C420.995 -0.185985 440.339 1.27101 446.566 5.89901C473.244 25.725 426.192 72.961 432.345 96.627C435.856 110.133 457.377 101.18 466.818 107.149C475.367 112.553 479.99 122.818 482.233 132.331C483.787 138.917 487.672 155.162 483.985 161.265C482.05 164.467 477.086 165.049 473.721 165.629Z" fill="#42B883"/>
<path d="M248.441 99.6239C246.805 99.8389 245.061 100.08 243.502 100.631C241.656 101.284 239.983 102.763 239.189 104.561C235.431 113.064 251.378 140.177 254.955 149.279C256.191 152.424 256.738 155.849 255.257 159.015C253.689 162.365 250.434 164.217 247.041 165.305C240.636 167.36 232.726 167.572 226.76 164.194C222.411 161.73 220.576 157.818 219.337 153.173C217.256 145.371 216.299 136.981 214.857 129.02C209.02 96.7959 206.308 67.4479 223.844 37.9559C232.324 23.6939 246.666 5.8499 263.507 1.5849C268.821 1.3289 273.255 2.15492 277.31 6.17792C287.117 16.0349 292.317 31.0309 296.673 44.1529C307.289 76.1279 307.539 112.217 299.346 144.798C297.913 150.495 296.459 157.186 292.55 161.601C284.671 170.501 258.166 168.311 259.256 153.07C259.639 148.895 262.053 145.172 263.349 141.221C267.168 129.583 271.872 116.655 273.171 104.52C274.004 96.7349 252.786 99.1139 248.441 99.6239ZM260.472 42.3059C250.414 48.0949 244.016 61.8679 240.027 72.5049C239.423 74.1169 239.488 75.4849 239.959 77.1019C241.975 79.1129 250.71 79.5399 253.588 79.5479C261.801 79.5909 266.04 79.8859 274.103 78.1969C272.821 70.2419 268.117 46.0599 260.472 42.3059Z" fill="#42B883"/>
<path d="M522.874 165.8C516.163 165.202 509.763 162.695 504.432 158.574C489.658 146.923 491.156 134.72 483.499 119.489C477.7 109.202 471.089 100.282 465.509 89.762C445.338 51.731 460.95 6.85702 507.266 1.68902C525.359 -0.939979 547.164 8.09004 559.109 21.661C563.984 27.214 567.507 33.821 569.402 40.963C572.277 51.938 571.082 88.426 570.765 101.627C570.337 119.457 563.511 145.899 549.206 157.871C541.236 164.542 533.198 166.587 522.874 165.8ZM514.058 60.954C503.905 63.415 497.634 73.6 500.008 83.774C502.382 93.948 512.514 100.306 522.707 98.019C533.025 95.704 539.477 85.422 537.074 75.125C534.672 64.827 524.335 58.463 514.058 60.954Z" fill="#42B883"/>
<path d="M638.47 163.572C628.369 167.02 579.224 171.833 580.644 153.847C582.441 131.081 598.223 101.128 597.938 77.4501C595.517 64.3881 575.359 80.5811 575.162 64.3471C574.939 45.8571 574.496 27.0571 575.188 8.58012C575.365 3.84512 580.121 2.42714 584.126 2.23814C598.427 1.96314 612.838 2.27314 627.154 2.07014C633.308 1.98314 639.862 1.82612 645.923 2.83012C647.234 4.03412 648.512 5.41414 649.298 7.03114C651.326 11.2041 650.653 53.7041 650.232 60.9291C650.087 63.4171 649.84 66.2751 648.959 68.6091C646.183 75.9641 635.706 69.6151 630.759 72.6831C628.843 73.8711 628.279 75.7841 628.15 77.9081C627.655 86.1021 631.143 95.6261 633.202 103.548C635.579 112.701 637.636 121.93 640.011 131.081C641.755 137.804 644.089 144.714 645.159 151.564C645.463 153.512 645.65 155.517 645.099 157.441C644.153 160.744 641.292 162.123 638.47 163.572Z" fill="#42B883"/>
<path d="M720.686 162.356C709.31 168.196 683.518 168.312 671.28 164.543C667.211 163.289 662.708 160.809 661.578 156.362C659.984 150.082 663.762 141.608 665.501 135.532C668.384 125.461 682.769 82.398 677.538 74.542C674.156 69.462 664.837 73.377 659.667 72.013C658.207 71.627 656.728 70.777 656.027 69.386C654.215 65.791 653.903 11.221 655.579 7.03904C656.654 4.35404 658.064 3.32905 660.661 2.20805C678.173 0.78805 698.554 3.01304 716.33 2.02104C720.547 1.78504 726.351 2.10804 729.933 4.47804C730.91 6.18604 731.753 9.56804 731.785 11.594C732.068 29.286 732.273 46.971 731.868 64.673C731.559 78.223 715.055 68.8851 710.455 73.3461C706.585 77.0991 712.542 98.5331 713.646 103.34C716.058 114.007 718.565 124.652 721.167 135.274C723.635 144.958 729.305 154.769 720.686 162.356Z" fill="#42B883"/>
<path d="M763.918 110.356C776.777 112.684 799.847 108.102 812.203 112.998C815.33 114.237 819.55 121.746 820.274 125.972C821.748 134.563 823.162 153.395 819.121 161.286C818.158 163.071 814.798 165.062 812.835 165.094C791.04 165.443 769.061 165.454 747.247 165.159C741.401 165.08 737.165 163.601 736.688 157.386C736.167 150.601 736.407 144.044 736.457 137.218L736.524 103.511L736.526 44.213C736.526 33.768 736.389 23.307 736.686 12.87C736.912 4.88996 739.694 2.81496 747.235 2.23696C760.86 1.90296 774.933 2.31598 788.623 2.10098C796.701 2.18198 804.782 1.73095 812.847 2.21395C821.249 2.71795 820.956 10.217 821.268 16.508C822.57 42.767 811.23 45.28 789.074 45.12L770.062 45.002C767.836 45.003 762.926 44.64 761.458 46.254C758.803 48.466 759.551 55.883 763.281 56.63C784.305 60.846 825.164 45.719 821.399 82.557C819.273 103.348 794.555 97.319 780.092 98.033C774.343 98.318 759.251 95.652 760.594 105.53C760.941 108.078 761.984 109 763.918 110.356Z" fill="#42B883"/>
<path d="M103.716 161.809C99.5077 164.83 95.0407 166.15 89.9257 166.454C68.3617 167.738 46.2397 160.803 29.8967 146.739C13.0037 132.044 2.68214 111.208 1.22894 88.8641C-0.383157 66.5461 6.14044 47.5151 20.6917 30.5751C36.3777 12.3141 58.6067 5.27309 82.1537 3.70909C85.2747 3.58909 88.3957 3.48909 91.5117 3.76509C96.4527 4.20309 101.394 6.00806 104.551 9.99906C108.416 14.8831 108.639 21.5461 107.997 27.4821C107.039 36.3531 103.99 45.2921 99.5637 53.0251C79.5787 87.9431 43.9087 67.3701 33.7937 76.1231C32.2867 77.4271 31.6557 79.1431 31.6507 81.1091C31.6437 84.1831 33.3927 86.8901 35.5667 88.9351C44.0647 96.9281 54.9797 93.7931 65.2827 93.3211C74.7927 92.8851 83.1677 96.6891 90.0267 103.077C101.228 113.509 108.039 131.317 108.533 146.44C108.724 152.308 107.79 157.406 103.716 161.809Z" fill="#42B883"/>
<path d="M253.588 79.5479C250.71 79.5399 241.975 79.1129 239.959 77.1019C239.488 75.4849 239.423 74.1169 240.027 72.5049C244.016 61.8679 250.414 48.0949 260.472 42.3059C268.117 46.0599 272.821 70.2419 274.103 78.1969C266.04 79.8859 261.801 79.5909 253.588 79.5479Z" fill="white"/>
<path d="M356.761 73.0141C350.778 75.7121 330.214 82.021 332.299 69.076C334.114 57.804 325.767 49.8341 340 46.5901C343.848 46.2991 348.612 46.0971 352.304 47.1251C369.227 51.8421 373.574 64.4601 356.761 73.0141Z" fill="white"/>
<path d="M522.707 98.0189C512.514 100.306 502.382 93.9479 500.008 83.7739C497.634 73.5999 503.905 63.4149 514.058 60.9539C524.335 58.4629 534.672 64.8269 537.074 75.1249C539.477 85.4219 533.025 95.7039 522.707 98.0189Z" fill="white"/>
</g>
<defs>
<clipPath id="clip0_99_766">
<rect width="822" height="168" fill="white"/>
</clipPath>
</defs>
</svg>
